<svg width="20" height="20" viewBox="0 0 20 20" fill="none" xmlns="http://www.w3.org/2000/svg">
<path fill-rule="evenodd" clip-rule="evenodd" d="M4.5 0H15.5C16.3284 0 17 0.671573 17 1.5V19.7225C17 19.8962 16.7938 19.9874 16.6654 19.8705L15.0032 18.3576C14.8124 18.184 14.5209 18.184 14.3301 18.3576L12.6699 19.8687C12.4791 20.0423 12.1876 20.0423 11.9968 19.8687L10.3366 18.3576C10.1458 18.184 9.85422 18.184 9.66345 18.3576L8.00322 19.8687C7.81244 20.0423 7.52089 20.0423 7.33012 19.8687L5.66988 18.3576C5.47911 18.184 5.18756 18.184 4.99678 18.3576L3.33462 19.8705C3.20617 19.9874 3 19.8962 3 19.7225V1.5C3 0.671574 3.67157 0 4.5 0ZM8.707 11.293C9.374 11.96 9.997 11.999 10.023 12C10.551 12 11 11.552 11 11C11 10.354 10.872 10.249 9.757 9.97L9.75576 9.96969C8.72461 9.71165 7 9.28008 7 7C7.00175 6.38167 7.19497 5.77905 7.5531 5.27499C7.91123 4.77092 8.41669 4.39015 9 4.185V4C9 3.73478 9.10536 3.48043 9.29289 3.29289C9.48043 3.10536 9.73478 3 10 3C10.2652 3 10.5196 3.10536 10.7071 3.29289C10.8946 3.48043 11 3.73478 11 4V4.2C11.6446 4.42997 12.2284 4.80376 12.707 5.293C12.8945 5.48051 12.9998 5.73482 12.9998 6C12.9998 6.26518 12.8945 6.51949 12.707 6.707C12.5195 6.89451 12.2652 6.99985 12 6.99985C11.7348 6.99985 11.4805 6.89451 11.293 6.707C10.626 6.04 10.002 6.001 9.976 6C9.448 6 9 6.448 9 7C9 7.646 9.127 7.751 10.242 8.03L10.2436 8.0304C11.2748 8.28844 13 8.72017 13 11C12.998 11.6183 12.8046 12.2207 12.4465 12.7248C12.0884 13.2288 11.5832 13.6096 11 13.815V14C11 14.2652 10.8946 14.5196 10.7071 14.7071C10.5196 14.8946 10.2652 15 10 15C9.73478 15 9.48043 14.8946 9.29289 14.7071C9.10536 14.5196 9 14.2652 9 14V13.8C8.35514 13.5705 7.77127 13.1967 7.293 12.707C7.20016 12.6142 7.12651 12.5039 7.07626 12.3826C7.02601 12.2613 7.00015 12.1313 7.00015 12C7.00015 11.7348 7.10549 11.4805 7.293 11.293C7.48051 11.1055 7.73482 11.0002 8 11.0002C8.26518 11.0002 8.51949 11.1055 8.707 11.293Z" fill="#007F5F"/>
</svg>
