<svg width="20" height="20" viewBox="0 0 20 20" fill="none" xmlns="http://www.w3.org/2000/svg">
<path d="M16 2C16 0.89543 16.8954 0 18 0C19.1046 0 20 0.89543 20 2V3H16V2Z" fill="#007F5F"/>
<path fill-rule="evenodd" clip-rule="evenodd" d="M8.37868 1C8.7765 1 9.15804 1.15803 9.43934 1.43934L13.5607 5.56066C13.842 5.84196 14 6.2235 14 6.62132V17.5C14 18.3284 13.3284 19 12.5 19H2.5C1.67157 19 1 18.3284 1 17.5V2.5C1 1.67157 1.67157 1 2.5 1H8.37868ZM4 5H8V7H4V5ZM11 9V11H4V9H11ZM4 15V13H9V15H4Z" fill="#007F5F"/>
<path d="M15.9999 5L20 5.00003L20.0001 16L18 20L16 16L15.9999 5Z" fill="#007F5F"/>
</svg>
