<svg width="114" height="85" viewBox="0 0 114 85" fill="none" xmlns="http://www.w3.org/2000/svg">
<path d="M113.218 6.4845H0V84.9997H113.218V6.4845Z" fill="#1C9A6F"/>
<path d="M112.924 6.76526H0.263672V84.9788H112.924V6.76526Z" fill="#1C9A6F"/>
<path d="M4.375 24.0102H71.9203V0.823528C71.9205 0.715463 71.8995 0.608414 71.8583 0.508509C71.8171 0.408604 71.7566 0.317806 71.6802 0.241311C71.6039 0.164817 71.5132 0.104128 71.4134 0.062721C71.3136 0.0213135 71.2066 -2.42737e-07 71.0985 0H8.93959C8.85226 9.14472e-05 8.7658 0.0173834 8.68515 0.0508884C8.6045 0.0843935 8.53124 0.133456 8.46955 0.195273C8.40786 0.257091 8.35895 0.330454 8.32562 0.411174C8.29228 0.491893 8.27517 0.578388 8.27526 0.66572V19.734C8.27416 20.1843 8.16759 20.6281 7.96408 21.0298C7.76058 21.4315 7.4658 21.7799 7.10337 22.0471L4.375 24.0102Z" fill="#E2F1E3"/>
<path d="M46.6645 7.40301C46.6642 7.67589 46.5558 7.93753 46.363 8.13061C46.1701 8.3237 45.9086 8.43248 45.6358 8.43312H32.5084C31.9681 8.43312 31.4971 8.04888 31.4449 7.50752C31.3926 6.8965 31.8636 6.37256 32.4562 6.37256H45.6183C46.1935 6.38998 46.6645 6.84424 46.6645 7.40301ZM63.5572 12.3268C63.557 12.5996 63.4486 12.8613 63.2557 13.0544C63.0629 13.2474 62.8014 13.3562 62.5285 13.3569H32.5084C31.9681 13.3569 31.4971 12.9726 31.4449 12.4316C31.3926 11.8202 31.8636 11.2967 32.4562 11.2967H62.5285C62.6641 11.2955 62.7984 11.3214 62.9238 11.3728C63.0493 11.4242 63.1632 11.5001 63.2589 11.596C63.3547 11.6919 63.4304 11.8059 63.4816 11.9313C63.5328 12.0568 63.5585 12.1912 63.5572 12.3268ZM62.546 17.2327C62.546 17.7919 62.0927 18.2632 61.5176 18.2632H32.5084C31.9681 18.2632 31.4971 17.879 31.4449 17.338C31.3926 16.7266 31.8636 16.203 32.4562 16.203H61.5002C62.0753 16.203 62.546 16.6743 62.546 17.2331V17.2327Z" fill="#9ED1AF"/>
<path d="M26.9476 20.3296H12.6006C12.3683 20.3288 12.1458 20.2361 11.9816 20.0717C11.8175 19.9074 11.725 19.6848 11.7245 19.4525V5.08323C11.725 4.85094 11.8175 4.6283 11.9816 4.46395C12.1458 4.2996 12.3683 4.20688 12.6006 4.20605H26.9476C27.1799 4.20688 27.4024 4.2996 27.5665 4.46395C27.7307 4.6283 27.8231 4.85094 27.8237 5.08323V19.4525C27.8231 19.6848 27.7307 19.9074 27.5665 20.0717C27.4024 20.2361 27.1799 20.3288 26.9476 20.3296Z" fill="#49B484"/>
<path d="M19.6608 14.6838C19.1727 14.6838 18.7718 15.0681 18.7718 15.5568C18.7718 16.0285 19.1727 16.4124 19.6608 16.4124C20.1666 16.4124 20.5501 16.0285 20.5501 15.5568C20.5501 15.0681 20.1492 14.6838 19.6608 14.6838ZM19.9921 8.24121C18.5276 8.24121 17.6211 9.16646 17.4644 10.3711L18.824 10.5634C18.8937 10.022 19.2424 9.39359 19.9572 9.39359C20.5324 9.39359 20.8114 9.70782 20.8114 10.2666C20.8114 10.8076 20.4631 11.157 20.0443 11.5761C19.504 12.1523 19.016 12.641 19.016 13.514V13.9679H20.3408V13.6189C20.3582 12.9904 20.8637 12.5536 21.4043 12.0126C21.9098 11.4712 22.3282 10.9999 22.3282 10.1966C22.3108 9.00935 21.5263 8.24121 19.9921 8.24121ZM108.03 52.6595H26.843V24.6184C26.843 24.1823 27.1913 23.8329 27.6275 23.8329H102.556C102.659 23.8325 102.761 23.8526 102.856 23.892C102.952 23.9314 103.039 23.9893 103.111 24.0623C103.184 24.1353 103.242 24.222 103.281 24.3175C103.321 24.4129 103.341 24.5152 103.34 24.6184V47.5263C103.339 48.0678 103.467 48.6016 103.712 49.0842C103.958 49.5668 104.314 49.9842 104.752 50.3024L108.03 52.6595Z" fill="white"/>
<path d="M92.4354 47.495H75.9032C75.6357 47.4945 75.3793 47.3878 75.1903 47.1985C75.0013 47.0092 74.8951 46.7526 74.895 46.4851V29.9275C74.895 29.3701 75.3472 28.9172 75.9032 28.9172H92.4354C92.9921 28.9172 93.4439 29.3701 93.4439 29.9275V46.4851C93.4439 46.7527 93.3377 47.0094 93.1486 47.1988C92.9595 47.3881 92.703 47.4947 92.4354 47.495Z" fill="#EAEBEC"/>
<path d="M83.8498 41.0137C83.2747 41.0137 82.8211 41.4502 82.8211 42.0264C82.8211 42.5677 83.2921 43.0042 83.8498 43.0042C84.425 43.0042 84.8785 42.5677 84.8785 42.0264C84.8959 41.4502 84.4424 41.0137 83.8498 41.0137ZM84.2508 33.5232C82.5421 33.5232 81.4963 34.6059 81.3047 36.0025L82.8908 36.2296C82.9779 35.6012 83.3618 34.8849 84.1985 34.8849C84.8608 34.8849 85.1746 35.2518 85.1746 35.8976C85.1746 36.5264 84.7737 36.9281 84.2856 37.4343C83.6579 38.1153 83.0827 38.6741 83.0827 39.6868V40.1755H84.6169V39.7739C84.6343 39.0406 85.2269 38.5344 85.8546 37.9056C86.4298 37.2771 86.9356 36.7184 86.9356 35.7931C86.9356 34.4136 86.0288 33.5232 84.2508 33.5232Z" fill="white"/>
<path d="M4.45898 69.5087H71.7869V46.4266C71.7872 46.3188 71.7662 46.2121 71.7251 46.1125C71.6841 46.0129 71.6238 45.9224 71.5476 45.8461C71.4715 45.7699 71.3811 45.7094 71.2816 45.6681C71.182 45.6269 71.0753 45.6057 70.9676 45.6058H9.00929C8.64351 45.6058 8.34705 45.9026 8.34705 46.2695V65.266C8.34597 65.7147 8.23975 66.1569 8.0369 66.5572C7.83405 66.9574 7.54023 67.3046 7.179 67.5708L4.45933 69.5087H4.45898Z" fill="#E2F1E3"/>
<path d="M46.6645 53.0089C46.6642 53.2817 46.5558 53.5434 46.363 53.7365C46.1701 53.9295 45.9086 54.0383 45.6358 54.039H32.5084C31.9681 54.039 31.4971 53.6551 31.4449 53.1137C31.3926 52.5027 31.8636 51.9788 32.4562 51.9788H45.6183C46.1935 51.9788 46.6645 52.4327 46.6645 53.0089ZM63.5572 57.9152C63.557 58.1881 63.4486 58.4497 63.2557 58.6428C63.0629 58.8359 62.8014 58.9447 62.5285 58.9453H32.5084C31.9681 58.9453 31.4971 58.5614 31.4449 58.0201C31.3926 57.409 31.8636 56.8851 32.4562 56.8851H62.5285C62.6641 56.884 62.7984 56.9099 62.9238 56.9613C63.0493 57.0126 63.1632 57.0885 63.2589 57.1844C63.3547 57.2803 63.4304 57.3943 63.4816 57.5198C63.5328 57.6453 63.5585 57.7797 63.5572 57.9152ZM62.546 62.8215C62.5457 63.0943 62.4373 63.3559 62.2446 63.549C62.0518 63.7421 61.7904 63.8509 61.5176 63.8516H32.5084C31.9681 63.8516 31.4971 63.4677 31.4449 62.926C31.3926 62.315 31.8636 61.7914 32.4562 61.7914H61.5002C62.0753 61.8088 62.546 62.2628 62.546 62.8215Z" fill="#9ED1AF"/>
<path d="M26.9476 65.8968H12.6006C12.1275 65.8968 11.7245 65.5154 11.7245 65.0291V50.8163C11.7262 50.5852 11.8194 50.3642 11.9835 50.2016C12.1477 50.039 12.3696 49.948 12.6006 49.9485H26.9476C27.4206 49.9485 27.8237 50.3303 27.8237 50.8163V65.0291C27.8237 65.5154 27.4381 65.8968 26.9476 65.8968Z" fill="#49B484"/>
<path d="M19.6608 60.2727C19.1727 60.2727 18.7718 60.6566 18.7718 61.1457C18.7718 61.617 19.1727 62.0009 19.6608 62.0009C20.1666 62.0009 20.5501 61.617 20.5501 61.1457C20.5501 60.6566 20.1492 60.2727 19.6608 60.2727ZM19.9921 53.8297C18.5276 53.8297 17.6211 54.755 17.4644 55.9599L18.824 56.1519C18.8937 55.6105 19.2424 54.9821 19.9572 54.9821C20.5324 54.9821 20.8114 55.2963 20.8114 55.8551C20.8114 56.3964 20.4631 56.7455 20.0443 57.182C19.504 57.7582 19.016 58.2469 19.016 59.1199V59.539H20.3408V59.19C20.3582 58.5612 20.8637 58.125 21.4043 57.5837C21.9098 57.0423 22.3282 56.571 22.3282 55.7677C22.3108 54.5979 21.5263 53.8297 19.9921 53.8297Z" fill="white"/>
<path d="M46.6645 30.6423C46.6642 30.9152 46.5558 31.1768 46.363 31.3699C46.1701 31.563 45.9086 31.6718 45.6358 31.6724H32.5084C31.9681 31.6724 31.4971 31.2885 31.4449 30.7471C31.3926 30.1361 31.8636 29.6122 32.4562 29.6122H45.6183C46.1935 29.6122 46.6645 30.0835 46.6645 30.6423ZM63.5572 35.5664C63.557 35.8393 63.4486 36.1009 63.2557 36.294C63.0629 36.4871 62.8014 36.5958 62.5285 36.5965H32.5084C31.9681 36.5965 31.4971 36.2123 31.4449 35.6712C31.3926 35.0599 31.8636 34.5363 32.4562 34.5363H62.5285C62.6641 34.5352 62.7984 34.5611 62.9238 34.6124C63.0493 34.6638 63.1632 34.7397 63.2589 34.8356C63.3547 34.9315 63.4304 35.0455 63.4816 35.171C63.5328 35.2964 63.5585 35.4309 63.5572 35.5664ZM62.546 40.4724C62.546 41.0311 62.0927 41.5028 61.5176 41.5028H32.5084C31.9681 41.5028 31.4971 41.1186 31.4449 40.5772C31.3926 39.9662 31.8636 39.4423 32.4562 39.4423H61.5002C62.0753 39.4423 62.546 39.9136 62.546 40.4724Z" fill="#EAEBEC"/>
<path d="M103.358 70.2769V84.9785H26.843V70.2769C26.843 69.893 27.1043 69.5788 27.453 69.5088C27.5053 69.4913 27.5749 69.4913 27.6272 69.4913H102.556C103.009 69.4913 103.358 69.8407 103.358 70.2769Z" fill="white"/>
<path d="M93.4439 75.6646V85H74.895V75.6646C74.8958 75.3976 75.0026 75.1419 75.1918 74.9535C75.381 74.7651 75.6372 74.6595 75.9042 74.6599H92.4521C92.9914 74.6773 93.4439 75.1103 93.4439 75.6646Z" fill="#EAEBEC"/>
<path d="M84.2508 79.1816C82.5421 79.1816 81.4963 80.264 81.3047 81.6609L82.8908 81.8881C82.9779 81.2596 83.3618 80.5434 84.1985 80.5434C84.8608 80.5434 85.1746 80.9102 85.1746 81.5561C85.1746 82.1849 84.7737 82.5862 84.2856 83.0927C83.7453 83.6863 83.2221 84.1928 83.1001 84.9958H84.704C84.896 84.4896 85.3492 84.0706 85.8372 83.5818C86.4124 82.953 86.9182 82.3942 86.9182 81.469C86.9356 80.0721 86.0288 79.1816 84.2508 79.1816Z" fill="white"/>
<path d="M46.6645 76.3007C46.6642 76.5736 46.5558 76.8353 46.363 77.0283C46.1701 77.2214 45.9086 77.3302 45.6358 77.3308H32.5084C31.9681 77.3308 31.4971 76.9466 31.4449 76.4056C31.3926 75.7946 31.8636 75.2706 32.4562 75.2706H45.6183C46.1935 75.288 46.6645 75.742 46.6645 76.3007ZM63.5572 81.2245C63.557 81.4974 63.4486 81.759 63.2557 81.9521C63.0629 82.1452 62.8014 82.2539 62.5285 82.2546H32.5084C31.9681 82.2546 31.4971 81.8707 31.4449 81.3293C31.3926 80.7183 31.8636 80.1944 32.4562 80.1944H62.5285C62.6641 80.1933 62.7984 80.2192 62.9238 80.2705C63.0493 80.3219 63.1632 80.3978 63.2589 80.4937C63.3547 80.5896 63.4304 80.7036 63.4816 80.8291C63.5328 80.9545 63.5585 81.089 63.5572 81.2245Z" fill="#EAEBEC"/>
</svg>
