<svg width="118" height="88" viewBox="0 0 118 88" fill="none" xmlns="http://www.w3.org/2000/svg">
<path d="M117.559 6.90356H0V87.9818H117.559V6.90356Z" fill="#FFDED4"/>
<path d="M103.554 87.8919L104.207 88.0001H62.2667C61.3791 88.0001 60.6545 87.2791 60.6545 86.3959V85.6028H103.899L103.554 87.8919Z" fill="white"/>
<path d="M111.4 46.7755L105.295 87.9274L104.552 87.9995H104.027L103.392 87.8913L103.719 85.6383L109.788 44.9369C110.784 44.9369 111.545 45.8021 111.4 46.7755Z" fill="#342945"/>
<path d="M57.9739 2.12671C58.1732 2.3972 58.3544 2.64966 58.4995 2.91979L57.9739 2.12671Z" fill="#95D3DB"/>
<path d="M58.7343 24.0092C62.5103 31.8979 47.5517 36.2942 47.5517 40.1233C47.5517 42.8001 53.7964 40.9568 53.7964 45.4058V45.4239L51.1096 45.4058L41.6698 45.3352V42.8358C41.6698 37.677 57.427 35.0002 53.8692 29.1147C52.8524 27.4308 45.9905 25.6401 48.5682 20.0741C50.3294 16.28 47.5152 13.125 45.682 10.8738C44.756 9.75685 44.0116 8.3384 43.3945 6.84961H59.4241C56.7372 10.2354 53.4152 14.1175 52.8343 14.6848C48.9132 18.585 56.2836 18.9042 58.7343 24.0092Z" fill="white"/>
<path d="M31.3428 57.4289L10.4177 34.717L14.639 32.3735C24.132 39.3132 25.2732 34.0678 26.7226 28.1917V23.1443L29.9835 23.2164C30.8531 23.7754 31.6684 23.1443 31.6684 23.1443C31.6684 23.1443 31.5418 23.5951 31.3425 24.3345C31.1432 25.0731 30.9077 26.1006 30.6903 27.2002C30.3098 29.1831 32.81 31.9407 35.962 34.3924C35.9982 34.4285 36.0343 34.4465 36.0709 34.4826C34.2044 33.5268 32.4294 35.636 31.94 36.1048C31.1793 36.8618 29.4767 40.8813 32.3752 43.7655C35.0382 46.4333 33.77 54.5808 33.6976 54.9952" fill="#6C3C35"/>
<path d="M30.9975 55.7704C22.555 64.873 13.8955 68.2436 5.18163 72.3176C4.90962 72.4258 4.67414 72.5336 4.42057 72.6779C1.77532 74.048 0 76.824 0 80.0144V46.6133C0 42.7381 2.0835 39.169 5.45292 37.2763L10.3083 34.5544L30.9975 55.7704Z" fill="#90DFD6"/>
<path fill-rule="evenodd" clip-rule="evenodd" d="M51.8318 77.5989V85.5842C47.4839 87.2785 42.8641 87.9995 42.8641 87.9995H33.1356L34.2407 76.3009L39.1503 77.1124L51.8318 77.5989Z" fill="#67CCC3"/>
<path d="M50.6364 16.5292L48.4801 21.3418C49.8753 17.5206 49.5129 14.5283 48.5709 12.4552C48.5348 12.4011 48.5163 12.329 48.4801 12.2749C45.4366 11.3019 39.5305 14.0057 37.9364 17.0157C37.9364 17.4124 38.7879 17.701 37.9364 17.6829C37.9364 17.6829 37.3746 18.1695 37.4112 17.8092C37.2661 18.0432 37.103 18.1695 36.976 18.3318C35.4004 20.152 32.9363 18.6023 32.6101 18.3318C31.5412 17.4301 31.4146 14.6906 29.0956 14.6906C25.8528 14.943 26.7224 20.5307 27.9178 22.6935C28.1714 23.1804 28.4615 23.487 28.7332 23.6673L28.6427 23.9919L26.8851 30.9493C25.3815 37.853 18.3341 42.702 8.55139 35.5278L12.9173 33.0945C12.845 33.2748 10.3086 39.0247 23.4068 7.89511C25.7616 2.27105 30.3638 0 35.5632 0C40.8714 0 47.7195 6.43482 48.7156 7.37216C51.1254 9.6616 52.0492 13.3745 50.6364 16.5292Z" fill="black"/>
<path d="M32.8269 63.5392C29.2759 67.5951 17.3735 83.6378 11.7936 86.8101C11.7755 86.8101 11.7755 86.8282 11.7575 86.8282C10.4637 87.5945 8.98679 87.9993 7.48193 87.9999H38.5156V77.2026L41.668 70.4071" fill="#90DFD6"/>
<path d="M84.9672 82.8984C84.9672 82.8984 83.3547 84.5207 81.7425 82.8984C80.1299 81.2762 78.2277 79.7802 78.2277 79.7802L70.4923 80.6995L78.1372 82.6644C78.1372 82.6644 77.4489 85.4043 71.2168 83.6197L67.503 84.3046C65.1294 84.737 62.6839 84.4128 60.528 83.3312C58.2814 83.205 55.0566 84.3948 51.8319 85.5842V77.617C54.2413 77.7793 57.1944 77.8875 60.7997 77.8875C64.0244 77.8875 71.3072 75.6341 71.5427 75.4902C71.7782 75.3459 79.2242 77.2567 79.2242 77.2567L84.9672 82.8984Z" fill="#C3765D"/>
<path d="M84.9672 82.8984C84.9672 82.8984 83.3547 84.5207 81.7425 82.8984C80.1299 81.2762 78.2277 79.7802 78.2277 79.7802L70.4923 80.6995L78.1372 82.6644C78.1372 82.6644 77.4489 85.4043 71.2168 83.6197L67.503 84.3046C65.1294 84.737 62.6839 84.4128 60.528 83.3312C58.2814 83.205 55.0566 84.3948 51.8319 85.5842V77.617C54.2413 77.7793 57.1944 77.8875 60.7997 77.8875C64.0244 77.8875 71.3072 75.6341 71.5427 75.4902C71.7782 75.3459 79.2242 77.2567 79.2242 77.2567L84.9672 82.8984Z" fill="#794740"/>
<path d="M32.4291 52.4357C32.5014 52.0033 34.0416 47.6768 30.5995 43.4409C28.0088 40.2686 30.3094 36.7897 31.0885 36.0327C31.5779 35.5458 33.3891 33.4731 35.2555 34.4285C35.4183 34.5367 35.5634 34.6629 35.7265 34.7892L36.1613 35.1134C37.7192 36.2311 39.7846 36.0684 41.0163 35.0413C42.0852 34.1577 41.2883 33.1486 41.6685 32.9502V70.1547C32.9546 70.497 32.7919 63.3592 32.7919 63.251" fill="black"/>
<path fill-rule="evenodd" clip-rule="evenodd" d="M39.005 44.9189H54.2413L51.1071 60.6013L41.7949 60.5292L39.005 44.9189Z" fill="#FCB64D"/>
<path fill-rule="evenodd" clip-rule="evenodd" d="M39.005 44.9189H45.9439V57.7713L41.7769 60.6013L39.005 44.9189Z" fill="#FCB64D"/>
<path d="M48.0994 44.9189H45.6896V55.8244H48.0994V44.9189Z" fill="#FFCB68"/>
<path d="M52.0496 55.302C52.0496 55.302 46.3427 60.1867 42.7194 60.4572C42.3935 60.4933 42.0853 60.4933 41.7594 60.5294C38.6794 60.7814 35.5451 61.1421 33.9329 62.8906C33.8063 63.0348 33.6612 63.1971 33.48 63.4135C30.6174 66.7662 22.2475 78.1762 16.2875 84.0163V66.3337C20.8162 63.3955 25.2368 60.0609 30.0017 54.9774C33.1356 51.6248 39.8206 49.4619 39.8206 49.4619L40.4004 52.8687C40.4004 52.8687 47.756 52.4178 53.1727 49.6599L52.0496 55.302ZM49.0068 21.4502C48.6814 22.3238 48.2939 23.1731 47.8471 23.9917C46.7963 25.9205 48.5539 28.0116 48.0645 29.1112C47.4485 30.5531 45.148 29.6338 44.8941 30.2646C44.5135 31.22 45.2022 31.7609 44.7494 32.1753C44.3869 32.518 43.7347 32.6622 43.7347 32.6622C43.7347 32.6622 43.789 33.9599 42.5573 34.0681C42.4846 34.0681 42.4123 34.0861 42.358 34.1041C41.3977 34.3205 42.2311 35.3661 41.1079 36.3211C39.7855 37.4207 37.6112 37.583 35.9444 36.3932C35.7816 36.285 35.6188 36.1591 35.4915 36.0509C35.2926 35.8526 35.0752 35.6903 34.8755 35.5821C31.5061 33.0045 28.8066 30.0846 29.2052 27.9935C29.4407 26.8398 29.6942 25.7582 29.9116 24.9831C30.1109 24.2077 30.256 23.7216 30.256 23.7216C30.256 23.7216 29.3864 24.4065 28.4445 23.7937C28.1544 23.6134 27.8647 23.3068 27.593 22.8023C26.3606 20.5669 25.4553 14.8891 28.8066 14.6367C31.7054 14.4203 31.5061 17.2864 32.6111 18.2057C32.9371 18.4762 34.8936 19.5214 36.5242 17.6828C36.5242 17.6828 36.5242 17.6647 36.5423 17.6647C36.8505 17.3405 36.9955 17.0339 37.2129 16.6556C38.8613 13.5911 45.8182 11.2119 48.9887 12.1853C49.0249 12.2394 49.0611 12.3115 49.0791 12.3656C50.0757 14.5104 50.4559 17.5749 49.0068 21.4505V21.4502Z" fill="#794740"/>
<path d="M42.9726 34.0313C44.1138 33.9231 44.0776 32.6976 44.0776 32.6976C44.0776 32.6976 44.6936 32.5714 45.0376 32.2468C45.0376 32.2468 45.1646 32.0484 45.1646 31.832C45.1646 31.0393 41.2877 32.1927 39.8202 31.3635C40.7621 32.4996 41.9037 34.0313 42.9726 34.0313Z" fill="#342945"/>
<path fill-rule="evenodd" clip-rule="evenodd" d="M16.3049 66.189V83.8539C14.9462 85.1695 13.6961 86.2151 12.6634 86.7918C12.6453 86.7918 12.6453 86.8098 12.6273 86.8098C11.3772 87.5668 9.90966 87.9816 8.33365 87.9816C3.73186 87.9816 0 84.2863 0 79.7258C0 76.5535 1.81149 73.7956 4.45638 72.4078C4.71031 72.2815 4.98196 72.1733 5.23589 72.0471C9.07662 70.3167 12.7181 68.478 16.3049 66.189Z" fill="#67CCC3"/>
<path d="M114.804 11.158L114.26 14.7808L111.507 33.2572L110.927 37.0963L110.528 39.7461L109.876 44.1803L109.478 46.8301L108.971 50.2188L108.572 52.8685L108.064 56.2573L107.666 58.907L107.068 62.9085L106.507 66.6759H64.0229C63.5339 66.6759 63.1172 66.2795 63.1172 65.7746V11.0314C63.1181 10.7924 63.2139 10.5634 63.3836 10.3945C63.5533 10.2257 63.7832 10.1306 64.0229 10.1301H113.916C114.478 10.1301 114.894 10.617 114.804 11.158Z" fill="white"/>
<path d="M114.279 14.7804L111.525 33.2568H69.0597C68.9359 33.2578 68.813 33.2343 68.6984 33.1875C68.5837 33.1408 68.4795 33.0718 68.3918 32.9845C68.3042 32.8973 68.2347 32.7935 68.1876 32.6793C68.1405 32.565 68.1167 32.4426 68.1174 32.3191V15.7181C68.1167 15.5946 68.1405 15.4722 68.1876 15.358C68.2347 15.2437 68.3042 15.14 68.3918 15.0527C68.4795 14.9655 68.5837 14.8965 68.6984 14.8497C68.813 14.803 68.9359 14.7794 69.0597 14.7804H114.279Z" fill="#D6F8F3"/>
<path d="M107.124 62.9446L106.562 66.712H84.4597V63.7196C84.459 63.5961 84.4829 63.4737 84.53 63.3595C84.5772 63.2454 84.6466 63.1416 84.7342 63.0544C84.8219 62.9672 84.9261 62.8982 85.0407 62.8515C85.1554 62.8048 85.2782 62.7813 85.402 62.7823H106.598C106.78 62.8003 106.961 62.8544 107.124 62.9446Z" fill="#90DFD6"/>
<path d="M110.964 37.0959L110.565 39.7457H86.7417C86.5657 39.7463 86.3914 39.7122 86.2287 39.6455C86.0659 39.5787 85.918 39.4805 85.7935 39.3566C85.6689 39.2326 85.5701 39.0854 85.5028 38.9233C85.4355 38.7612 85.4009 38.5874 85.4012 38.412C85.4009 38.2365 85.4355 38.0627 85.5028 37.9006C85.5701 37.7384 85.6689 37.5912 85.7934 37.4672C85.918 37.3432 86.0659 37.245 86.2286 37.1782C86.3914 37.1114 86.5657 37.0773 86.7417 37.0779H110.964V37.0959ZM109.008 50.2364L108.609 52.8865H69.7496C69.5736 52.8871 69.3992 52.853 69.2364 52.7862C69.0737 52.7194 68.9258 52.6212 68.8012 52.4972C68.6766 52.3733 68.5778 52.226 68.5104 52.0639C68.4431 51.9017 68.4085 51.7279 68.4087 51.5524C68.4085 51.377 68.4431 51.2032 68.5104 51.0411C68.5778 50.879 68.6766 50.7317 68.8012 50.6078C68.9258 50.4839 69.0737 50.3857 69.2365 50.3189C69.3992 50.2522 69.5736 50.2181 69.7496 50.2187H109.008V50.2364ZM108.102 56.2933L107.704 58.943H69.7496C69.5736 58.9436 69.3992 58.9095 69.2364 58.8427C69.0737 58.7759 68.9258 58.6777 68.8012 58.5537C68.6766 58.4297 68.5778 58.2825 68.5104 58.1203C68.4431 57.9582 68.4085 57.7844 68.4087 57.6089C68.4085 57.4335 68.4431 57.2597 68.5104 57.0976C68.5778 56.9354 68.6766 56.7882 68.8012 56.6643C68.9258 56.5404 69.0737 56.4422 69.2365 56.3754C69.3992 56.3087 69.5736 56.2746 69.7496 56.2752H108.102V56.2933Z" fill="#F1F3F5"/>
<path d="M111.688 31.3637L111.543 33.2564H69.0597C68.9359 33.2574 68.8131 33.2339 68.6985 33.1872C68.5839 33.1405 68.4798 33.0715 68.3921 32.9843C68.3044 32.8972 68.235 32.7935 68.1879 32.6793C68.1407 32.5652 68.1168 32.4428 68.1174 32.3194L83.3719 23.7394C83.7086 23.5534 84.0854 23.4512 84.4702 23.4418C84.8551 23.4323 85.2365 23.5157 85.582 23.6849L98.1912 30.048L103.246 28.0831C103.862 27.8487 104.532 27.8848 105.13 28.1553L111.688 31.3637Z" fill="#90DFD6"/>
<path d="M98.1915 25.1814C100.192 25.1814 101.815 23.5675 101.815 21.5763C101.815 19.5855 100.192 17.9712 98.1915 17.9712C96.1904 17.9712 94.5681 19.5851 94.5681 21.5763C94.5681 23.5671 96.1904 25.1814 98.1915 25.1814Z" fill="#FFCB67"/>
</svg>
