<svg width="118" height="88" viewBox="0 0 118 88" fill="none" xmlns="http://www.w3.org/2000/svg">
<path d="M117.032 6.83154H0.0186768V87.7843H117.032V6.83154Z" fill="#DFF7E5"/>
<path d="M75.6472 58.6462L63.9799 62.858L61.2569 63.8476L60.6799 64.0637L54.5671 61.076L54.2962 60.9501L49.6622 58.6823L44.2162 56.0189L37.7424 52.8512L32.2965 50.2054L28.4735 48.3336L25.1194 46.6962L24.8309 46.5523L19.2411 43.8344L18.5017 43.4745L15.1476 41.8367L11.4509 40.037L8.52955 38.6153L5.87871 37.3195L5.19347 36.9776L0 34.44V6.83169H63.2405C63.3307 6.65172 63.4212 6.48978 63.5291 6.30981H72.7799L72.798 6.65172V6.83205L72.816 7.10182L74.0422 29.7064L74.0963 30.8583L74.3308 35.0877L74.457 37.4995L74.5291 38.8851L74.5472 39.3172L74.6373 40.9008L75.4668 56.1808L75.6472 58.6462Z" fill="white"/>
<path d="M49.121 15.0386C49.1212 15.2138 49.0868 15.3873 49.0197 15.5491C48.9527 15.7109 48.8544 15.8579 48.7304 15.9816C48.6064 16.1053 48.4592 16.2034 48.2972 16.27C48.1353 16.3367 47.9617 16.3707 47.7866 16.3702H30.7455C30.0422 16.3702 29.4295 15.8663 29.357 15.1825C29.2848 14.3905 29.8983 13.7248 30.6734 13.7248H47.7685C47.9445 13.7188 48.1199 13.7484 48.2841 13.8118C48.4483 13.8752 48.5981 13.9712 48.7244 14.0938C48.8507 14.2165 48.9509 14.3634 49.019 14.5258C49.0872 14.6881 49.1219 14.8626 49.121 15.0386ZM69.7322 21.3916C69.7324 21.5668 69.6981 21.7403 69.631 21.9022C69.564 22.064 69.4657 22.2111 69.3417 22.3348C69.2177 22.4586 69.0705 22.5566 68.9085 22.6233C68.7465 22.69 68.5729 22.7241 68.3978 22.7235H30.7459C30.0426 22.7235 29.4295 22.2193 29.3573 21.5355C29.2852 20.7435 29.8983 20.0777 30.6737 20.0777H68.3978C69.1371 20.0597 69.7502 20.6537 69.7322 21.3916ZM69.7322 27.7446C69.7324 27.9198 69.6981 28.0933 69.631 28.2551C69.564 28.417 69.4657 28.5641 69.3417 28.6878C69.2177 28.8116 69.0705 28.9096 68.9085 28.9763C68.7465 29.043 68.5729 29.0771 68.3978 29.0765H30.7459C30.0426 29.0765 29.4295 28.5727 29.3573 27.8888C29.2852 27.0968 29.8983 26.4307 30.6737 26.4307H68.3978C69.1371 26.4127 69.7502 27.0067 69.7322 27.7446ZM69.7322 34.1156C69.7324 34.2908 69.6981 34.4643 69.631 34.6262C69.564 34.788 69.4657 34.9351 69.3417 35.0588C69.2177 35.1826 69.0705 35.2806 68.9085 35.3473C68.7465 35.414 68.5729 35.4481 68.3978 35.4475H30.7459C30.0426 35.4475 29.4295 34.9437 29.3573 34.2599C29.2852 33.4679 29.8983 32.8017 30.6737 32.8017H68.3978C69.1371 32.7837 69.7502 33.3781 69.7322 34.1156ZM69.7322 39.929C69.7324 40.1042 69.698 40.2777 69.631 40.4395C69.5639 40.6014 69.4656 40.7484 69.3416 40.8722C69.2176 40.9959 69.0704 41.094 68.9085 41.1607C68.7465 41.2274 68.5729 41.2615 68.3978 41.2609H30.7459C30.0426 41.2609 29.4295 40.7567 29.3573 40.0729C29.2852 39.2809 29.8983 38.6152 30.6737 38.6152H68.3978C69.1371 38.5971 69.7502 39.1911 69.7322 39.929ZM69.7322 45.7421C69.7324 45.9173 69.6981 46.0908 69.631 46.2527C69.564 46.4145 69.4657 46.5616 69.3417 46.6853C69.2177 46.8091 69.0705 46.9071 68.9085 46.9738C68.7465 47.0405 68.5729 47.0746 68.3978 47.074H30.7459C30.0426 47.074 29.4295 46.5702 29.3573 45.886C29.2852 45.094 29.8983 44.4282 30.6737 44.4282H68.3978C69.1371 44.4102 69.7502 45.0042 69.7322 45.7421ZM69.5526 51.5552C69.5526 52.2931 68.9575 52.8691 68.2182 52.8691H37.743L32.297 50.2233H68.2182C68.9575 50.2233 69.5706 50.8176 69.5526 51.5552ZM69.5519 57.3686C69.5519 58.1062 68.9568 58.6825 68.2174 58.6825H49.6616L44.216 56.0367H68.2174C68.9568 56.0367 69.5695 56.6307 69.5519 57.3686Z" fill="#F1F3F5"/>
<path d="M47.1506 85.0027L60.416 80.9169L61.3097 76.4202L63.9915 63.0026L54.3555 61.2719L52.3531 71.4601L48.277 76.7239L47.8658 81.9159L47.1506 85.0027Z" fill="#FAB99A"/>
<path d="M47.4534 84.9311L60.7007 80.8272L61.5947 76.3309L52.3518 71.4598L48.5617 76.6342L48.1686 81.8443L47.4534 84.9311Z" fill="#EBA286"/>
<path d="M61.2205 64.501C61.2381 64.501 61.2381 64.501 61.2205 64.501L59.2358 87.9823H102.643L95.1699 82.4332L85.5515 70.8889L76.9166 43.6074L75.6651 42.8579V38.9863L70.3018 34.543L63.5799 36.5771L61.9353 37.0769C60.9413 37.3761 60.0494 37.9444 59.3584 38.7191C58.6675 39.4938 58.2043 40.4445 58.0203 41.4661L54.3553 61.2897C54.3553 61.2716 60.9164 64.4833 61.2205 64.501Z" fill="#1E8061"/>
<path d="M103.589 72.4771L104.608 66.1071L96.4381 65.7324L103.589 72.4771Z" fill="#EBA286"/>
<path d="M90.9688 31.189L106.308 38.005C111.117 40.1282 113.941 45.1598 113.28 50.3521L111.009 68.0344L95.8315 65.6256L80.4387 54.7594L76.8992 42.8404L90.9688 31.189Z" fill="#1E8061"/>
<path d="M64.6346 9.45635C63.9371 11.2228 63.4545 12.9713 63.4008 14.8806C63.3474 16.7005 63.544 18.5738 63.544 20.376C63.5432 20.8268 63.6973 21.2642 63.9805 21.6151C64.2636 21.9659 64.6587 22.2089 65.0995 22.3033C65.3137 22.3567 65.4389 22.5529 65.3851 22.7671C65.1886 23.5166 65.0458 25.3541 66.9406 27.9234C66.9406 27.9234 65.9575 30.7607 67.5307 31.0817C69.1039 31.4207 70.1231 30.9032 70.1231 30.9032L75.397 31.4921H79.0439L82.0295 24.5513L79.8305 10.5268L76.2369 7.35083H71.8214L69.9976 7.68985L66.9406 8.88543L64.6346 9.45635ZM84.175 16.3615C84.175 16.3615 83.335 19.3946 83.4779 20.2869C83.621 21.1788 83.4779 20.2869 83.4779 20.2869L85.6768 23.98L87.6611 22.66L84.175 16.3615Z" fill="#FAB99A"/>
<path d="M79.8651 13.8637L81.5101 21.4288L82.8329 25.9251L82.2966 30.0114L76.8439 36.4704L77.1659 37.6656L80.1334 46.6049L91.0029 31.1889L87.7314 23.9805C87.7314 23.9805 89.2865 21.6964 89.8409 17.6282C89.8409 17.6282 90.0374 13.6495 86.7122 13.8456C83.3873 14.0418 79.8651 13.8637 79.8651 13.8637Z" fill="#FAB99A"/>
<path d="M75.2719 41.4305L78.3468 49.1208L90.9684 31.1889L87.6965 23.9805C87.7326 24.0696 87.1068 24.819 86.9997 24.9084C86.4811 25.3899 84.9259 26.1751 84.0499 24.5694L83.8887 28.0487L84.9079 27.8702L75.2719 41.4305Z" fill="#EBA286"/>
<path d="M89.36 13.2033C89.36 13.8633 89.3063 14.4883 89.2172 15.1126V15.1483C88.8594 14.6665 88.2694 14.4883 87.6437 14.3455C86.1956 14.0065 85.0696 15.7907 84.4973 16.9505C84.247 17.4677 84.1042 17.8424 84.1042 17.8424C83.7644 18.5919 83.5679 19.4484 83.4784 20.287C83.3352 21.643 83.4424 22.9457 83.5318 23.6591C83.5855 24.0162 83.7644 24.3552 84.0681 24.5694L84.8727 25.3899L85.3553 25.8718C86.2494 26.7817 86.3922 28.2088 85.6954 29.28C84.5153 31.1175 83.3352 32.9374 81.9943 34.5254C81.172 35.489 79.6345 37.077 78.6334 37.8622C78.294 38.1298 77.9899 38.3617 77.7039 38.5759C77.6325 38.6293 77.5608 38.665 77.507 38.7184C77.3105 38.8612 77.1316 38.9683 76.935 39.0931C76.5422 39.328 76.1134 39.4969 75.6659 39.593C75.3618 39.6644 75.0221 39.7178 74.629 39.7178H74.2716C72.9306 39.7178 71.0354 38.3797 70.8208 37.0947L70.0879 34.5791L69.7305 33.3301C69.5873 32.866 69.3013 32.4559 68.9439 32.1526C68.7293 31.9741 68.5328 31.7775 68.3359 31.5813C68.2111 31.4385 68.3002 31.2243 68.4967 31.2066L68.5862 31.1889L70.0879 30.9033C70.0879 30.9033 72.126 30.3681 73.9675 30.2072C74.1818 30.1899 74.3787 30.1719 74.5752 30.1719C75.6121 30.1362 76.1665 30.7608 76.6133 30.939C77.0959 31.1355 77.7397 31.1889 78.0614 30.7962C79.4557 29.1011 80.5286 27.0493 81.172 25.6756C81.6021 24.7404 81.6721 23.6794 81.3686 22.6958C80.7071 20.5726 79.5631 16.8791 79.4917 16.7006L79.3309 16.1654C79.3309 16.1834 79.3309 16.2011 79.3485 16.2188L77.7754 11.2943L77.6502 10.8125C77.3562 9.91212 76.7841 9.12819 76.0164 8.57351C75.2486 8.01882 74.3247 7.72197 73.3775 7.72564C73.1629 7.72564 72.9483 7.74367 72.7337 7.77938C70.0879 8.27889 68.5505 11.7048 65.8333 11.7048C65.1782 11.7055 64.5421 11.4854 64.0275 11.0801C63.3483 10.5449 62.9011 9.70601 62.9011 8.7784C62.9011 8.36797 63.0263 7.92184 63.2228 7.49374C63.3123 7.31521 63.4017 7.15472 63.5092 6.97619C64.7069 5.08491 67.335 3.22933 68.7113 2.30135C70.8926 0.838528 73.5026 0 76.1484 0C81.4046 0 85.9453 3.06883 88.0548 7.49374C88.9132 9.26024 89.36 11.1696 89.36 13.2033Z" fill="#002A35"/>
<path d="M79.3478 16.183C79.3478 16.201 79.3478 16.2187 79.3655 16.2367C79.4015 16.3972 79.4549 16.5577 79.5086 16.7005L79.3478 16.183Z" fill="#002A35"/>
<path d="M103.59 72.477L82.9591 52.9928L79.2407 41.1452L76.9343 37.3446C76.7711 37.0894 76.5508 36.8756 76.2909 36.72L71.5533 34.0078C71.1241 34.543 71.1421 35.3282 71.589 35.8457L74.1457 38.5045L75.236 41.4305L73.3411 41.0738L69.2112 46.8191L71.1778 52.3682L76.112 57.1678L89.5025 79.8279C90.1459 80.9164 90.9862 81.8624 91.9874 82.6471L99.4959 88L103.071 85.9659L104.591 79.9173L103.59 72.477Z" fill="#FAB99A"/>
<path d="M16.0427 51.6368L39.5872 64.3586L41.6433 69.2473L56.1064 77.4014L56.0526 78.1332L43.5562 78.5794L27.8954 72.2985L16.3464 67.5703L13.7363 52.2791L15.3452 51.1907L16.0424 51.6368H16.0427Z" fill="white" stroke="white" stroke-width="2.006" stroke-miterlimit="10" stroke-linecap="round" stroke-linejoin="round"/>
<path d="M15.704 68.1592L42.7526 82.6295L55.9461 78.9364C55.9876 78.9262 56.0251 78.9038 56.0537 78.872C56.0823 78.8403 56.1007 78.8006 56.1065 78.7583C56.1123 78.716 56.1052 78.6728 56.0862 78.6346C56.0672 78.5963 56.0371 78.5646 55.9999 78.5437L31.7399 65.34C31.4658 65.1952 31.1517 65.145 30.8462 65.1972L16.4902 68.0164L13.7012 51.4763L12.897 51.6188L15.7036 68.1592H15.704Z" fill="#002A35" stroke="#002A35" stroke-width="1.505" stroke-miterlimit="10" stroke-linecap="round" stroke-linejoin="round"/>
<path d="M41.6438 69.2119L31.9187 63.8767C31.6327 63.7162 31.2926 63.6628 30.9709 63.7519L17.831 66.7493L17.4736 64.4656L15.7216 54.3131L41.0004 67.7487L41.6438 69.2119Z" fill="#F0F0EE"/>
<path d="M39.0517 79.9173L44.3256 77.6336C44.7451 77.4493 45.2007 77.3616 45.6586 77.377C46.1166 77.3924 46.5652 77.5105 46.9714 77.7227L48.4017 78.4541C49.0332 78.7827 49.5324 79.3185 49.8155 79.9716C50.0987 80.6247 50.1486 81.3553 49.9569 82.0408L49.0809 85.1274C48.938 85.6272 48.5449 86.0019 48.0263 86.1267L45.1659 86.8048C44.7724 86.8939 44.3436 86.8228 44.0039 86.5729L38.8194 82.9151C38.649 82.7914 38.5056 82.6343 38.398 82.4532C38.2904 82.2722 38.2209 82.0711 38.1937 81.8623L38.1576 81.4876C38.1136 81.164 38.1773 80.8349 38.3389 80.5511C38.5004 80.2673 38.7509 80.0446 39.0517 79.9173Z" fill="#FAB99A"/>
<path d="M54.3553 61.2717C54.3553 61.2717 60.9164 64.4834 61.2205 64.5191L63.5799 36.5771L61.9353 37.077C60.9413 37.3761 60.0494 37.9445 59.3584 38.7192C58.6675 39.4938 58.2043 40.4446 58.0203 41.4662L54.3553 61.2717Z" fill="#094D40"/>
<path d="M111.009 68.052L108.113 87.9823H99.5139L102.017 66.6245L111.009 68.052Z" fill="#FAB99A"/>
<path d="M96.7609 65.7861L111.027 68.0521L113.298 50.3698C113.959 45.1774 111.135 40.1459 106.343 38.0227L99.389 34.9358L96.7609 65.7861Z" fill="#094D40"/>
<path d="M23.5508 31.236H7.213C6.67201 31.236 6.22119 30.7863 6.22119 30.246V13.9588C6.22119 13.4185 6.67201 12.9688 7.213 12.9688H23.5508C24.0918 12.9688 24.5426 13.4189 24.5426 13.9588V30.2641C24.5426 30.804 24.0918 31.236 23.5508 31.236Z" fill="#49B484"/>
<path d="M15.1123 24.8653C14.5353 24.8653 14.0664 25.315 14.0664 25.8729C14.0664 26.4128 14.5353 26.8629 15.1123 26.8629C15.6894 26.8629 16.1582 26.4128 16.1582 25.8729C16.1582 25.297 15.6894 24.8653 15.1123 24.8653ZM15.509 17.36C13.7959 17.36 12.75 18.4402 12.5516 19.8438L14.1385 20.0602C14.2287 19.4298 14.6254 18.7103 15.4549 18.7103C16.1221 18.7103 16.4467 19.0699 16.4467 19.718C16.4467 20.348 16.05 20.7437 15.5631 21.2475C14.932 21.9317 14.3549 22.4896 14.3549 23.5153V24.0195H15.8877V23.6235C15.9057 22.8856 16.5008 22.3814 17.132 21.7517C17.7271 21.1216 18.214 20.5637 18.214 19.6278C18.214 18.2422 17.2943 17.3603 15.509 17.3603V17.36Z" fill="white"/>
</svg>
