<svg width="107" height="187" viewBox="0 0 107 187" fill="none" xmlns="http://www.w3.org/2000/svg">
<g clip-path="url(#clip0_31_4395)">
<path d="M70.6069 169.551H36.9094V186.746H70.6069V169.551Z" fill="#002E25"/>
<path d="M105.793 169.551H72.0951V186.746H105.793V169.551ZM53.6689 150.754H36.9094V167.915H53.6689V150.754Z" fill="#008060"/>
<path d="M88.9086 151.034H55.2114V168.229H88.9086V151.034Z" fill="#002E25"/>
<path d="M70.6069 132.518H36.9094V149.713H70.6069V132.518Z" fill="#3FB484"/>
<path d="M53.7232 146.395C56.6355 146.395 58.9961 144.042 58.9961 141.14C58.9961 138.237 56.6355 135.884 53.7232 135.884C50.8113 135.884 48.4507 138.237 48.4507 141.14C48.4507 144.042 50.8113 146.395 53.7232 146.395Z" fill="#69CF9C"/>
<path d="M72.0204 164.912C74.9323 164.912 77.293 162.559 77.293 159.657C77.293 156.754 74.9323 154.401 72.0204 154.401C69.1082 154.401 66.7476 156.754 66.7476 159.657C66.7476 162.559 69.1082 164.912 72.0204 164.912Z" fill="#008060"/>
<path d="M54.0052 183.429C56.9171 183.429 59.278 181.076 59.278 178.173C59.278 175.271 56.9171 172.918 54.0052 172.918C51.0932 172.918 48.7323 175.271 48.7323 178.173C48.7323 181.076 51.0932 183.429 54.0052 183.429Z" fill="#69CF9C"/>
<path d="M88.9093 183.148C91.8212 183.148 94.1818 180.795 94.1818 177.893C94.1818 174.99 91.8212 172.637 88.9093 172.637C85.997 172.637 83.6364 174.99 83.6364 177.893C83.6364 180.795 85.997 183.148 88.9093 183.148ZM36.9094 164.631C39.8217 164.631 42.1823 162.279 42.1823 159.376C42.1823 156.474 39.8217 154.121 36.9094 154.121V164.631Z" fill="#90DFD6"/>
<path d="M36.9091 108.648H35.5004V123.251H36.9091V108.648ZM29.1544 108.217L27.3411 122.933L30.1373 123.275L31.9509 108.559L29.1544 108.217V108.217ZM24.304 106.489L18.3624 120.083L20.9455 121.204L26.8871 107.611L24.304 106.489V106.489ZM20.157 103.427L10.587 114.779L12.7439 116.586L22.3139 105.234L20.157 103.427V103.427ZM17.033 99.3361L4.62156 107.51L6.17517 109.853L18.5862 101.679L17.033 99.3361ZM15.2274 94.5552L0.980819 98.8238L1.79185 101.513L16.0394 97.2445L15.228 94.5552H15.2274ZM14.8764 89.4319L0 89.4479L0.00301997 92.2559L14.8794 92.2402L14.8764 89.4319ZM1.77239 80.2055L0.967061 82.8964L15.2233 87.1325L16.0287 84.4416L1.77239 80.2055V80.2055ZM6.10806 71.842L4.56015 74.1882L16.9893 82.3342L18.5372 79.9881L6.10806 71.842V71.842ZM12.6782 65.0896L10.5253 66.9013L20.1221 78.2306L22.275 76.4192L12.6782 65.0896V65.0896ZM20.868 60.4638L18.2876 61.5913L24.2604 75.1701L26.8408 74.0427L20.868 60.4638ZM30.0661 58.3786L27.27 58.7274L29.1179 73.4407L31.9137 73.0918L30.0658 58.3786H30.0661ZM35.5259 58.2669L35.4793 73.0942L38.2969 73.1029L38.3435 58.2756L35.5259 58.2669ZM45.6173 58.2966H42.8V73.1239H45.6173V58.2966ZM52.8934 58.3214L50.0758 58.3287L50.1157 73.1561L52.933 73.1487L52.8934 58.3214V58.3214ZM60.1994 58.318L57.3821 58.3338L57.4646 73.1611L60.2823 73.1454L60.1994 58.318V58.318ZM65.3904 57.6588L62.6815 58.4304L66.7695 72.6872L69.4784 71.9153L65.3904 57.6588ZM68.6671 55.2261L66.5363 57.0635L76.2683 68.2775L78.3994 66.4401L68.6671 55.2261V55.2261ZM70.82 51.4505L69.5747 53.9696L82.9186 60.5234L84.1642 58.0043L70.82 51.4505V51.4505ZM71.4105 47.4743L71.3545 50.282L86.2282 50.5763L86.2839 47.7686L71.4105 47.4743ZM86.2376 40.2844L71.3612 40.3653L71.3766 43.1737L86.253 43.0927L86.2376 40.2844ZM86.2416 33.0209L71.3652 33.0818L71.3766 35.8898L86.253 35.8289L86.2416 33.0209ZM86.2416 25.7293L71.3652 25.7695L71.373 28.5778L86.2493 28.5377L86.2416 25.7293ZM86.2429 18.4662L71.3666 18.4862L71.3703 21.2946L86.2466 21.2745L86.2429 18.4662V18.4662ZM86.2456 11.203H71.3689V14.0113H86.2456V11.203Z" fill="#FBF7ED"/>
<path d="M65.0852 14.0114H92.0767L78.5811 0.53186L65.0852 14.011V14.0114Z" fill="#FBF7ED"/>
</g>
<defs>
<clipPath id="clip0_31_4395">
<rect width="106.034" height="186.621" fill="white" transform="translate(0 0.379272)"/>
</clipPath>
</defs>
</svg>
