<svg width="20" height="20" viewBox="0 0 20 20" fill="none" xmlns="http://www.w3.org/2000/svg">
<path d="M1.62337 2.2534L1.01414 5.8356C0.910472 6.44513 1.39012 7 2.02069 7H2.93141C3.51118 7 4.04118 6.679 4.30046 6.17082L4.89784 5L5.49521 6.17082C5.75449 6.679 6.28449 7 6.86426 7H8.03357C8.61334 7 9.14335 6.679 9.40263 6.17082L10 5L10.5974 6.17082C10.8567 6.679 11.3867 7 11.9664 7H13.1357C13.7155 7 14.2455 6.679 14.5048 6.17082L15.1022 5L15.6995 6.17082C15.9588 6.679 16.4888 7 17.0686 7H17.9793C18.6099 7 19.0895 6.44513 18.9859 5.8356L18.3766 2.2534C18.2536 1.53012 17.615 1 16.8668 1H3.13319C2.38495 1 1.74638 1.53012 1.62337 2.2534Z" fill="#007F5F"/>
<path d="M13.7071 9.29289C14.0976 9.68342 14.0976 10.3166 13.7071 10.7071L9.70711 14.7071C9.31658 15.0976 8.68342 15.0976 8.29289 14.7071L6.29289 12.7071C5.90237 12.3166 5.90237 11.6834 6.29289 11.2929C6.68342 10.9024 7.31658 10.9024 7.70711 11.2929L9 12.5858L12.2929 9.29289C12.6834 8.90237 13.3166 8.90237 13.7071 9.29289Z" fill="#007F5F"/>
<path d="M4 9H2V17.5C2 18.3284 2.67157 19 3.5 19H16.5C17.3284 19 18 18.3284 18 17.5V9H16V17H4V9Z" fill="#007F5F"/>
</svg>
