<svg width="20" height="21" viewBox="0 0 20 21" fill="none" xmlns="http://www.w3.org/2000/svg">
<path fill-rule="evenodd" clip-rule="evenodd" d="M10 15.7038C8.369 15.7038 6.936 14.9215 6.022 13.7285C6.936 12.5354 8.369 11.7531 10 11.7531C11.631 11.7531 13.064 12.5354 13.978 13.7285C13.064 14.9215 11.631 15.7038 10 15.7038ZM10 5.82722C11.104 5.82722 12 6.71315 12 7.80253C12 8.89191 11.104 9.77784 10 9.77784C8.896 9.77784 8 8.89191 8 7.80253C8 6.71315 8.896 5.82722 10 5.82722ZM10 2.86426C5.589 2.86426 2 6.40895 2 10.7655C2 15.122 5.589 18.6667 10 18.6667C14.411 18.6667 18 15.122 18 10.7655C18 6.40895 14.411 2.86426 10 2.86426Z" fill="#5C5F62"/>
</svg>
