<svg width="20" height="21" viewBox="0 0 20 21" fill="none" xmlns="http://www.w3.org/2000/svg">
<g clip-path="url(#clip0_18_6769)">
<path fill-rule="evenodd" clip-rule="evenodd" d="M6.0859 10.746C5.73629 10.8234 5.37291 10.8643 5 10.8643C2.23858 10.8643 0 8.62568 0 5.86426C0 3.10283 2.23858 0.864258 5 0.864258C7.70083 0.864258 9.90151 3.00568 9.99679 5.68326L14.3739 6.41278C14.8853 5.48939 15.8697 4.86426 17 4.86426C18.6569 4.86426 20 6.2074 20 7.86426C20 9.52111 18.6569 10.8643 17 10.8643C16.6795 10.8643 16.3708 10.814 16.0812 10.721L13.2151 14.4841C13.7083 15.1492 14 15.9726 14 16.8643C14 19.0734 12.2091 20.8643 10 20.8643C7.79086 20.8643 6 19.0734 6 16.8643C6 15.6268 6.56194 14.5206 7.44455 13.7868L6.0859 10.746ZM7.91164 9.9295L9.25393 12.9337C9.49564 12.8881 9.74504 12.8643 10 12.8643C10.5924 12.8643 11.1548 12.9931 11.6606 13.2242L14.4905 9.50873C14.2712 9.17478 14.1168 8.79442 14.0451 8.38557L9.66928 7.65627C9.31623 8.57561 8.69948 9.36422 7.91164 9.9295Z" fill="#5C5F62"/>
</g>
<defs>
<clipPath id="clip0_18_6769">
<rect width="20" height="19.7531" fill="white" transform="translate(0 0.864258)"/>
</clipPath>
</defs>
</svg>
