<svg width="20" height="20" viewBox="0 0 20 20" fill="none" xmlns="http://www.w3.org/2000/svg">
<g clip-path="url(#clip0_17_4137)">
<path d="M17 4.00001C17.5523 4.00001 18 4.44773 18 5.00002C17.9999 9.4999 17.9992 13.9998 17.9998 18.4997C17.9999 19.3282 17.3282 20 16.4997 20C12.1664 19.9999 7.83316 20 3.49991 20C2.67148 20 1.99991 19.3284 1.99991 18.5C1.99993 12.8333 2.00006 7.16667 2.00011 1.49999C2.00011 0.671569 2.67168 1.22923e-06 3.50011 2.74558e-06L8 1.09822e-05V2.00001H4V18H16V5.00002C16 4.44773 16.4477 4.00001 17 4.00001V4.00001Z" fill="#007F5F"/>
<path d="M8 5.00001V11C8 12.206 8.799 14 11 14C13.201 14 14 12.206 14 11V3.00001C14 1.79402 13.201 1.09822e-05 11 1.09822e-05H10V2.00001H11C11.805 2.00001 11.988 2.55 12 3.00001V10.988C11.988 11.45 11.805 12 11 12C10.195 12 10.012 11.45 10 11V5.00001C10 4.73481 9.89464 4.48042 9.70711 4.29292C9.51958 4.10536 9.26522 4.00001 9 4.00001C8.73479 4.00001 8.48043 4.10536 8.2929 4.29292C8.10537 4.48042 8 4.73481 8 5.00001Z" fill="#007F5F"/>
</g>
<defs>
<clipPath id="clip0_17_4137">
<rect width="20" height="20" fill="white"/>
</clipPath>
</defs>
</svg>
