<svg width="20" height="21" viewBox="0 0 20 21" fill="none" xmlns="http://www.w3.org/2000/svg">
<g clip-path="url(#clip0_17_2989)">
<path d="M13 4.81488H16V6.79018H13V4.81488Z" fill="#5C5F62"/>
<path d="M13 8.76549H16V10.7408H13V8.76549Z" fill="#5C5F62"/>
<path d="M7 4.81488H4V6.79018H7V4.81488Z" fill="#5C5F62"/>
<path d="M7 8.76549H4V10.7408H7V8.76549Z" fill="#5C5F62"/>
<path d="M7 12.7161H4V14.6914H7V12.7161Z" fill="#5C5F62"/>
<path fill-rule="evenodd" clip-rule="evenodd" d="M18.5 0.864259C19.3284 0.864259 20 1.52754 20 2.34574V17.1606C20 17.9788 19.3284 18.642 18.5 18.642H12C11.7348 18.642 11.4804 18.7461 11.2929 18.9313C11.1054 19.1165 11 19.3678 11 19.6297C11 19.8916 10.8946 20.1429 10.7071 20.3281C10.5196 20.5133 10.2652 20.6173 10 20.6173C9.73478 20.6173 9.48043 20.5133 9.29289 20.3281C9.10536 20.1429 9 19.8916 9 19.6297C9 19.3678 8.89464 19.1165 8.70711 18.9313C8.51957 18.7461 8.26522 18.642 8 18.642H1.5C0.671573 18.642 0 17.9788 0 17.1606V2.34574C0 1.52754 0.671573 0.864259 1.5 0.864259H8C8.73843 0.863609 9.45094 1.13313 10 1.6208C10.531 1.15068 11.232 0.864259 12 0.864259H18.5ZM12 16.6667H18V2.83957H12C11.7348 2.83957 11.4804 2.94362 11.2929 3.12885C11.1054 3.31407 11 3.56528 11 3.82722V16.8435C11.313 16.7329 11.648 16.6667 12 16.6667ZM2 16.6667H8C8.34116 16.6683 8.67948 16.7281 9 16.8435V3.82722C9 3.56528 8.89464 3.31407 8.70711 3.12885C8.51957 2.94362 8.26522 2.83957 8 2.83957H2V16.6667Z" fill="#5C5F62"/>
</g>
<defs>
<clipPath id="clip0_17_2989">
<rect width="20" height="19.7531" fill="white" transform="translate(0 0.864258)"/>
</clipPath>
</defs>
</svg>
